REM DIRINDEX 1\2,1\3,1\4,1\5\6,1\5\7,1\8
REM DIRNAME cjc115,folder01,folder02,folder03,folder04,folder05,folder06,folder07
TITLE ""
FILE "084 Åy084ÅzUnit5 (0949 obedient_0960 stubborn).mp3" MP3
  TRACK 01 AUDIO
    TITLE "0:"
    INDEX 01 00:00:00
  TRACK 02 AUDIO
    TITLE "2:cjc115_3288"
    INDEX 01 00:00:07
  TRACK 03 AUDIO
    TITLE "0:"
    INDEX 01 00:01:34
  TRACK 04 AUDIO
    TITLE "3:cjc115_3289"
    INDEX 01 00:01:48
  TRACK 05 AUDIO
    TITLE "0:"
    INDEX 01 00:03:63
  TRACK 06 AUDIO
    TITLE "4:cjc115_3290"
    INDEX 01 00:03:72
  TRACK 07 AUDIO
    TITLE "0:"
    INDEX 01 00:07:54
  TRACK 08 AUDIO
    TITLE "2:cjc115_3291"
    INDEX 01 00:08:68
  TRACK 09 AUDIO
    TITLE "0:"
    INDEX 01 00:09:73
  TRACK 10 AUDIO
    TITLE "3:cjc115_3292"
    INDEX 01 00:10:12
  TRACK 11 AUDIO
    TITLE "0:"
    INDEX 01 00:12:73
  TRACK 12 AUDIO
    TITLE "4:cjc115_3293"
    INDEX 01 00:13:08
  TRACK 13 AUDIO
    TITLE "0:"
    INDEX 01 00:16:04
  TRACK 14 AUDIO
    TITLE "2:cjc115_3294"
    INDEX 01 00:17:20
  TRACK 15 AUDIO
    TITLE "0:"
    INDEX 01 00:18:23
  TRACK 16 AUDIO
    TITLE "3:cjc115_3295"
    INDEX 01 00:18:35
  TRACK 17 AUDIO
    TITLE "0:"
    INDEX 01 00:20:16
  TRACK 18 AUDIO
    TITLE "4:cjc115_3296"
    INDEX 01 00:20:30
  TRACK 19 AUDIO
    TITLE "0:"
    INDEX 01 00:23:61
  TRACK 20 AUDIO
    TITLE "2:cjc115_3297"
    INDEX 01 00:24:72
  TRACK 21 AUDIO
    TITLE "0:"
    INDEX 01 00:26:13
  TRACK 22 AUDIO
    TITLE "3:cjc115_3298"
    INDEX 01 00:26:24
  TRACK 23 AUDIO
    TITLE "0:"
    INDEX 01 00:27:59
  TRACK 24 AUDIO
    TITLE "4:cjc115_3299"
    INDEX 01 00:27:71
  TRACK 25 AUDIO
    TITLE "0:"
    INDEX 01 00:32:41
  TRACK 26 AUDIO
    TITLE "2:cjc115_3300"
    INDEX 01 00:33:52
  TRACK 27 AUDIO
    TITLE "0:"
    INDEX 01 00:34:73
  TRACK 28 AUDIO
    TITLE "3:cjc115_3301"
    INDEX 01 00:35:10
  TRACK 29 AUDIO
    TITLE "0:"
    INDEX 01 00:36:31
  TRACK 30 AUDIO
    TITLE "4:cjc115_3302"
    INDEX 01 00:36:40
  TRACK 31 AUDIO
    TITLE "0:"
    INDEX 01 00:40:19
  TRACK 32 AUDIO
    TITLE "2:cjc115_3303"
    INDEX 01 00:41:32
  TRACK 33 AUDIO
    TITLE "0:"
    INDEX 01 00:42:55
  TRACK 34 AUDIO
    TITLE "3:cjc115_3304"
    INDEX 01 00:42:66
  TRACK 35 AUDIO
    TITLE "0:"
    INDEX 01 00:43:68
  TRACK 36 AUDIO
    TITLE "4:cjc115_3305"
    INDEX 01 00:44:03
  TRACK 37 AUDIO
    TITLE "0:"
    INDEX 01 00:47:17
  TRACK 38 AUDIO
    TITLE "2:cjc115_3306"
    INDEX 01 00:48:30
  TRACK 39 AUDIO
    TITLE "0:"
    INDEX 01 00:49:53
  TRACK 40 AUDIO
    TITLE "3:cjc115_3307"
    INDEX 01 00:49:65
  TRACK 41 AUDIO
    TITLE "0:"
    INDEX 01 00:52:14
  TRACK 42 AUDIO
    TITLE "4:cjc115_3308"
    INDEX 01 00:52:26
  TRACK 43 AUDIO
    TITLE "0:"
    INDEX 01 00:55:67
  TRACK 44 AUDIO
    TITLE "2:cjc115_3309"
    INDEX 01 00:57:07
  TRACK 45 AUDIO
    TITLE "0:"
    INDEX 01 00:58:28
  TRACK 46 AUDIO
    TITLE "3:cjc115_3310"
    INDEX 01 00:58:40
  TRACK 47 AUDIO
    TITLE "0:"
    INDEX 01 00:59:49
  TRACK 48 AUDIO
    TITLE "4:cjc115_3311"
    INDEX 01 00:59:63
  TRACK 49 AUDIO
    TITLE "0:"
    INDEX 01 01:03:29
  TRACK 50 AUDIO
    TITLE "2:cjc115_3312"
    INDEX 01 01:04:43
  TRACK 51 AUDIO
    TITLE "0:"
    INDEX 01 01:05:62
  TRACK 52 AUDIO
    TITLE "3:cjc115_3313"
    INDEX 01 01:05:73
  TRACK 53 AUDIO
    TITLE "0:"
    INDEX 01 01:08:46
  TRACK 54 AUDIO
    TITLE "4:cjc115_3314"
    INDEX 01 01:08:62
  TRACK 55 AUDIO
    TITLE "0:"
    INDEX 01 01:12:71
  TRACK 56 AUDIO
    TITLE "2:cjc115_3315"
    INDEX 01 01:14:08
  TRACK 57 AUDIO
    TITLE "0:"
    INDEX 01 01:15:13
  TRACK 58 AUDIO
    TITLE "3:cjc115_3316"
    INDEX 01 01:15:27
  TRACK 59 AUDIO
    TITLE "0:"
    INDEX 01 01:16:40
  TRACK 60 AUDIO
    TITLE "4:cjc115_3317"
    INDEX 01 01:16:52
  TRACK 61 AUDIO
    TITLE "0:"
    INDEX 01 01:19:74
  TRACK 62 AUDIO
    TITLE "2:cjc115_3318"
    INDEX 01 01:21:12
  TRACK 63 AUDIO
    TITLE "0:"
    INDEX 01 01:22:25
  TRACK 64 AUDIO
    TITLE "3:cjc115_3319"
    INDEX 01 01:22:41
  TRACK 65 AUDIO
    TITLE "0:"
    INDEX 01 01:23:50
  TRACK 66 AUDIO
    TITLE "4:cjc115_3320"
    INDEX 01 01:23:62
  TRACK 67 AUDIO
    TITLE "0:"
    INDEX 01 01:28:53
  TRACK 68 AUDIO
    TITLE "2:cjc115_3321"
    INDEX 01 01:29:66
  TRACK 69 AUDIO
    TITLE "0:"
    INDEX 01 01:31:04
  TRACK 70 AUDIO
    TITLE "3:cjc115_3322"
    INDEX 01 01:31:20
  TRACK 71 AUDIO
    TITLE "0:"
    INDEX 01 01:32:19
  TRACK 72 AUDIO
    TITLE "4:cjc115_3323"
    INDEX 01 01:32:31
  TRACK 73 AUDIO
    TITLE "0:"
    INDEX 01 01:36:52
